<?xml version="1.0" standalone="no"?>
<!DOCTYPE svg PUBLIC "-//W3C//DTD SVG 1.1//EN" "http://www.w3.org/Graphics/SVG/1.1/DTD/svg11.dtd" >
<svg xmlns="http://www.w3.org/2000/svg">
<metadata>Generated by IcoMoon</metadata>
<defs>
<font id="icomoon" horiz-adv-x="1024">
<font-face units-per-em="1024" ascent="960" descent="-64" />
<missing-glyph horiz-adv-x="1024" />
<glyph unicode="&#x20;" horiz-adv-x="512" d="" />
<glyph unicode="&#xe600;" glyph-name="arrow-left" d="M915.2 0l-812.8 448 812.8 448v-896z" />
<glyph unicode="&#xe601;" glyph-name="add" d="M512.786 950.562c-278.415 0-503.349-224.934-503.349-503.349 0-276.842 224.934-501.776 501.776-501.776s501.776 224.934 501.776 501.776c1.573 278.415-223.361 503.349-500.203 503.349zM794.347 365.419l-210.777 1.573-1.573-212.35h-143.14l1.573 212.35-210.777 1.573v143.14l210.777-1.573 1.573 210.777h143.14l-1.573-210.777 210.777-1.573v-143.14z" />
<glyph unicode="&#xe602;" glyph-name="prev" d="M512.786 944.27c-272.123 0-492.338-220.215-492.338-492.338s220.215-492.338 492.338-492.338c272.123 0 492.338 220.215 492.338 492.338-1.573 272.123-221.788 492.338-492.338 492.338zM581.997 225.425c-18.876-17.303-47.189-15.73-67.637 6.292-58.2 62.919-116.399 125.837-174.599 187.183-23.594 26.74-23.594 48.762 0 75.502 58.2 62.919 116.399 124.264 173.026 187.183 26.74 28.313 69.21 20.449 81.794-14.157 6.292-18.876 1.573-34.605-12.584-50.335-47.189-50.335-92.805-99.097-138.421-149.432-3.146-3.146-6.292-7.865-11.011-11.011 50.335-55.054 100.67-108.535 149.432-162.015 22.022-22.022 22.022-50.335 0-69.21z" />
<glyph unicode="&#xe603;" glyph-name="deactivate" d="M868.276 802.704c-196.621 196.621-515.932 196.621-710.98 0-196.621-195.048-196.621-514.359 0-710.98s514.359-196.621 710.98 0 195.048 515.932 0 710.98zM652.78 190.82l-149.432 149.432-149.432-149.432-100.67 100.67 149.432 149.432-149.432 149.432 100.67 100.67 149.432-149.432 149.432 149.432 100.67-100.67-147.859-149.432 149.432-149.432-102.243-100.67z" />
<glyph unicode="&#xe604;" glyph-name="edit" d="M1001.978 521.143c-39.324 270.55-290.998 457.733-563.121 416.836-270.55-39.324-457.733-292.571-416.836-563.121 39.324-270.55 292.571-457.733 563.121-416.836 270.55 39.324 457.733 290.998 416.836 563.121zM448.295 193.966l-165.161-75.502 22.022 177.745 59.773 33.032-7.865-48.762 58.2 22.022-7.865-61.346 51.908 17.303-11.011-64.492zM473.462 228.571v0 0l14.157 66.065-51.908-17.303 7.865 61.346-58.2-22.022 7.865 48.762-59.773-31.459-1.573 1.573 221.788 298.863 141.567-105.389-221.788-300.436zM718.845 560.467l-141.567 105.389 12.584 17.303 141.567-105.389-12.584-17.303zM777.045 639.115l-22.022-28.313-141.567 105.389 22.022 28.313c11.011 15.73 33.032 18.876 48.762 7.865l84.94-62.919c17.303-12.584 20.449-34.605 7.865-50.335z" />
<glyph unicode="&#xe605;" glyph-name="first" d="M512.786 944.27c-272.123 0-492.338-220.215-492.338-492.338s220.215-492.338 492.338-492.338c272.123 0 492.338 220.215 492.338 492.338-1.573 272.123-221.788 492.338-492.338 492.338zM498.63 214.415c-18.876-17.303-47.189-15.73-67.637 6.292-58.2 62.919-116.399 125.837-174.599 187.183-23.594 26.74-23.594 48.762 0 75.502 58.2 62.919 116.399 124.264 173.026 187.183 26.74 28.313 69.21 20.449 81.794-14.157 6.292-18.876 1.573-34.605-12.584-50.335-47.189-50.335-92.805-99.097-138.421-149.432-3.146-3.146-6.292-7.865-11.011-11.011 50.335-55.054 100.67-108.535 149.432-162.015 22.022-20.449 20.449-50.335 0-69.21zM703.115 378.003c26.74-28.313 51.908-56.627 78.648-83.367 18.876-20.449 18.876-50.335 0-69.21-20.449-18.876-48.762-15.73-69.21 4.719-58.2 62.919-117.972 125.837-176.172 188.756-20.449 22.022-20.449 47.189 0 70.783 58.2 62.919 117.972 127.41 176.172 190.329 18.876 20.449 48.762 23.594 67.637 4.719 20.449-18.876 22.022-47.189 1.573-67.637-47.189-51.908-95.951-102.243-143.14-154.151-3.146-3.146-4.719-4.719-7.865-7.865 25.167-25.167 48.762-51.908 72.356-77.075z" />
<glyph unicode="&#xe606;" glyph-name="refresh" d="M520.651 950.562c-281.561 4.719-509.641-221.788-511.214-498.63-1.573-283.134 226.507-506.495 503.349-506.495 275.269 0 498.63 220.215 503.349 493.911 3.146 283.134-223.361 508.068-495.484 511.214zM160.442 475.527c-11.011 9.438-11.011 23.594-3.146 33.032 7.865 11.011 25.167 12.584 34.605 3.146 12.584-11.011 23.594-22.022 36.178-33.032 1.573-1.573 1.573-1.573 3.146-1.573 1.573 6.292 1.573 12.584 3.146 18.876 9.438 47.189 26.74 91.232 56.627 128.983 31.459 39.324 70.783 67.637 117.972 83.367 18.876 6.292 39.324 11.011 59.773 12.584 17.303 1.573 36.178 3.146 53.481 1.573 53.481-1.573 102.243-18.876 144.713-50.335 42.47-29.886 75.502-69.21 100.67-116.399 3.146-6.292 6.292-11.011 7.865-17.303 3.146-12.584-3.146-23.594-15.73-28.313-11.011-4.719-23.594 1.573-29.886 12.584-6.292 12.584-12.584 25.167-20.449 37.751-22.022 33.032-48.762 59.773-83.367 81.794-26.74 17.303-55.054 26.74-86.513 31.459-20.449 3.146-42.47 1.573-62.919 0-26.74-3.146-51.908-7.865-75.502-18.876-42.47-18.876-73.929-50.335-94.378-91.232-12.584-23.594-20.449-48.762-26.74-73.929 0 0 0 0 0-1.573 1.573 1.573 4.719 3.146 6.292 6.292 7.865 6.292 15.73 14.157 22.022 20.449 14.157 12.584 36.178 6.292 39.324-12.584 1.573-9.438 0-17.303-7.865-22.022-18.876-18.876-39.324-36.178-58.2-55.054-6.292-6.292-12.584-11.011-18.876-17.303-9.438-7.865-22.022-6.292-29.886 1.573-22.022 18.876-47.189 42.47-72.356 66.065zM861.985 352.836c-9.438-7.865-23.594-7.865-31.459 0-11.011 11.011-23.594 20.449-34.605 31.459 0 0-1.573 1.573-3.146 1.573s0-1.573-1.573-3.146c-6.292-31.459-15.73-61.346-29.886-89.659-14.157-26.74-31.459-51.908-53.481-72.356-29.886-28.313-64.492-47.189-103.816-58.2-22.022-6.292-44.043-9.438-66.065-11.011-14.157-1.573-26.74-1.573-40.897 0-44.043 3.146-86.513 15.73-124.264 39.324-22.022 12.584-40.897 28.313-58.2 45.616-26.74 26.74-48.762 56.627-64.492 91.232-4.719 11.011-3.146 20.449 3.146 28.313 11.011 12.584 31.459 7.865 39.324-6.292 23.594-47.189 56.627-88.086 100.67-116.399 26.74-17.303 58.2-28.313 89.659-33.032 40.897-4.719 81.794-1.573 121.118 12.584 26.74 9.438 48.762 23.594 69.21 42.47 23.594 22.022 39.324 48.762 51.908 77.075 6.292 15.73 11.011 31.459 15.73 47.189 0 1.573 0 1.573 0 3.146-4.719-3.146-7.865-7.865-12.584-11.011-6.292-6.292-12.584-12.584-18.876-18.876-9.438-9.438-25.167-7.865-33.032 0-9.438 9.438-9.438 25.167 0 33.032 17.303 15.73 34.605 31.459 51.908 47.189 7.865 7.865 17.303 15.73 25.167 23.594s20.449 7.865 29.886 1.573c4.719-3.146 7.865-6.292 12.584-11.011 7.865-7.865 17.303-15.73 25.167-23.594 14.157-12.584 26.74-25.167 40.897-37.751 11.011-7.865 9.438-25.167 0-33.032z" />
<glyph unicode="&#xe607;" glyph-name="search" d="M558.402 502.267c0-78.185-63.382-141.567-141.567-141.567s-141.567 63.382-141.567 141.567c0 78.185 63.382 141.567 141.567 141.567s141.567-63.382 141.567-141.567zM512.786 944.27c-275.269 0-497.057-221.788-497.057-497.057 0-273.696 221.788-495.484 497.057-495.484s495.484 221.788 495.484 495.484c0 275.269-221.788 497.057-495.484 497.057zM416.836 286.771c-117.972 0-215.496 95.951-215.496 215.496 0 117.972 95.951 215.496 215.496 215.496 117.972 0 215.496-95.951 215.496-215.496s-97.524-215.496-215.496-215.496zM808.504 215.988c-36.178-50.335-66.065-34.605-66.065-34.605l-152.578 146.286 33.032 47.189 190.329-94.378c1.573 0 23.594-26.74-4.719-64.492z" />
<glyph unicode="&#xe608;" glyph-name="next" d="M512.786 944.27c-272.123 0-492.338-220.215-492.338-492.338s220.215-492.338 492.338-492.338 492.338 220.215 492.338 492.338c-1.573 272.123-221.788 492.338-492.338 492.338zM682.667 411.035c-58.2-62.919-116.399-124.264-173.026-187.183-26.74-28.313-69.21-20.449-81.794 14.157-6.292 18.876-1.573 34.605 12.584 50.335 47.189 50.335 92.805 99.097 138.421 149.432 3.146 3.146 6.292 7.865 11.011 11.011-50.335 55.054-100.67 108.535-149.432 162.015-20.449 22.022-18.876 50.335 1.573 69.21 18.876 17.303 47.189 15.73 67.637-6.292 58.2-62.919 116.399-125.837 174.599-187.183 23.594-26.74 23.594-50.335-1.573-75.502z" />
<glyph unicode="&#xe609;" glyph-name="last" d="M512.786-43.551c272.123 0 492.338 220.215 492.338 492.338s-220.215 492.338-492.338 492.338c-272.123 0-492.338-220.215-492.338-492.338s220.215-492.338 492.338-492.338zM525.37 684.731c18.876 17.303 47.189 15.73 67.637-6.292 58.2-62.919 116.399-125.837 174.599-187.183 23.594-26.74 23.594-48.762 0-75.502-58.2-62.919-116.399-124.264-173.026-187.183-26.74-28.313-69.21-20.449-81.794 14.157-6.292 18.876-1.573 34.605 12.584 50.335 47.189 50.335 92.805 99.097 138.421 149.432 3.146 3.146 6.292 7.865 11.011 11.011-50.335 55.054-100.67 108.535-149.432 162.015-22.022 22.022-20.449 51.908 0 69.21zM320.885 522.716c-26.74 28.313-51.908 56.627-78.648 83.367-18.876 20.449-18.876 50.335 0 69.21 20.449 18.876 48.762 15.73 69.21-4.719 58.2-62.919 117.972-125.837 176.172-188.756 20.449-22.022 20.449-47.189 0-70.783-58.2-62.919-117.972-127.41-176.172-190.329-18.876-20.449-48.762-23.594-67.637-4.719-20.449 18.876-22.022 47.189-1.573 67.637 47.189 51.908 95.951 102.243 143.14 154.151 3.146 3.146 4.719 4.719 7.865 7.865-23.594 25.167-48.762 51.908-72.356 77.075z" />
<glyph unicode="&#xe60a;" glyph-name="resume" d="M659.072 621.813h-294.144c-17.303 0-31.459-14.157-31.459-31.459s14.157-31.459 31.459-31.459h292.571c17.303 0 31.459 14.157 31.459 31.459s-12.584 31.459-29.886 31.459zM659.072 344.971h-294.144c-17.303 0-31.459-14.157-31.459-31.459s14.157-31.459 31.459-31.459h292.571c17.303 0 31.459 14.157 31.459 31.459s-12.584 31.459-29.886 31.459zM659.072 486.538h-294.144c-17.303 0-31.459-14.157-31.459-31.459s14.157-31.459 31.459-31.459h292.571c17.303 0 31.459 14.157 31.459 31.459s-12.584 31.459-29.886 31.459zM512.786 944.27c-272.123 0-492.338-220.215-492.338-492.338s220.215-492.338 492.338-492.338 492.338 220.215 492.338 492.338c-1.573 272.123-221.788 492.338-492.338 492.338zM762.888 204.977c0-25.167-22.022-47.189-47.189-47.189h-407.398c-25.167 0-47.189 22.022-47.189 47.189v495.484c0 26.74 22.022 47.189 47.189 47.189h407.398c25.167 0 47.189-20.449 47.189-47.189v-495.484z" />
<glyph unicode="&#xe60b;" glyph-name="up" d="M20.449 447.214c0-272.123 220.215-492.338 492.338-492.338s492.338 220.215 492.338 492.338-221.788 492.338-492.338 492.338c-272.123 0-492.338-220.215-492.338-492.338zM555.257 618.667c62.919-58.2 124.264-116.399 187.183-173.026 28.313-26.74 20.449-69.21-14.157-81.794-18.876-6.292-34.605-1.573-50.335 12.584-50.335 47.189-99.097 92.805-149.432 138.421-3.146 3.146-7.865 6.292-11.011 11.011-55.054-50.335-108.535-100.67-162.015-149.432-22.022-20.449-50.335-18.876-69.21 1.573-17.303 18.876-15.73 47.189 6.292 67.637 62.919 58.2 125.837 116.399 187.183 174.599 25.167 23.594 48.762 23.594 75.502-1.573z" />
<glyph unicode="&#xe60c;" glyph-name="down" d="M1003.551 447.214c0 272.123-220.215 492.338-492.338 492.338s-492.338-220.215-492.338-492.338 220.215-492.338 492.338-492.338c272.123 1.573 492.338 221.788 492.338 492.338zM470.316 277.333c-62.919 58.2-124.264 116.399-187.183 173.026-28.313 26.74-20.449 69.21 14.157 81.794 18.876 6.292 34.605 1.573 50.335-12.584 50.335-47.189 99.097-92.805 149.432-138.421 3.146-3.146 7.865-6.292 11.011-11.011 55.054 50.335 108.535 100.67 162.015 149.432 22.022 20.449 50.335 18.876 69.21-1.573 17.303-18.876 15.73-47.189-6.292-67.637-62.919-58.2-125.837-116.399-187.183-174.599-26.74-23.594-50.335-23.594-75.502 1.573z" />
<glyph unicode="&#xe60d;" glyph-name="alert" d="M512.786 939.551c-272.123 0-492.338-220.215-492.338-492.338s220.215-492.338 492.338-492.338 492.338 220.215 492.338 492.338-221.788 492.338-492.338 492.338zM585.143 170.372c0-18.876-15.73-34.605-34.605-34.605h-78.648c-18.876 0-34.605 15.73-34.605 34.605v78.648c0 18.876 15.73 34.605 34.605 34.605h78.648c18.876 0 34.605-15.73 34.605-34.605v-78.648zM604.018 617.094l-36.178-284.707h-114.826l-34.605 284.707v141.567h185.61v-141.567z" />
<glyph unicode="&#xe60e;" glyph-name="user" d="M382.23 407.889c-56.627 40.897-92.805 105.389-92.805 179.318 0 122.691 99.097 221.788 221.788 221.788s221.788-99.097 221.788-221.788c0-73.929-36.178-139.994-92.805-179.318 122.691-47.189 213.923-160.442 229.653-295.717 81.794 88.086 132.129 206.058 132.129 335.041 0 272.123-220.215 492.338-492.338 492.338s-489.192-220.215-489.192-492.338c0-128.983 50.335-246.955 132.129-335.041 15.73 135.275 106.962 248.528 229.653 295.717zM512.786 324.522c-139.994 0-254.82-114.826-254.82-254.82 0-15.73 1.573-29.886 4.719-44.043 73.929-44.043 158.869-69.21 250.101-69.21s177.745 25.167 250.101 69.21c3.146 14.157 4.719 29.886 4.719 44.043 0 139.994-114.826 254.82-254.82 254.82zM668.51 587.207c0-86.004-69.72-155.724-155.724-155.724s-155.724 69.72-155.724 155.724c0 86.004 69.72 155.724 155.724 155.724s155.724-69.72 155.724-155.724z" />
<glyph unicode="&#xe60f;" glyph-name="pass" d="M509.641 942.697c-272.123 0-492.338-220.215-492.338-492.338s220.215-492.338 492.338-492.338c272.123 0 492.338 220.215 492.338 492.338s-220.215 492.338-492.338 492.338zM692.104 206.55c0-44.043-34.605-78.648-78.648-78.648h-206.058c-44.043 0-78.648 34.605-78.648 78.648v201.339c0 26.74 12.584 50.335 33.032 64.492v182.464c0 34.605 28.313 64.492 64.492 64.492h168.307c34.605 0 64.492-28.313 64.492-64.492v-182.464c20.449-14.157 33.032-37.751 33.032-64.492v-201.339zM530.089 637.542h-40.897c-34.605 0-64.492-28.313-64.492-64.492v-86.513h168.307v86.513c1.573 36.178-26.74 64.492-62.919 64.492z" />
<glyph unicode="&#xe610;" glyph-name="arrow-right" d="M105.389 897.081l810.077-449.868-810.077-448.295z" />
<glyph unicode="&#xe611;" glyph-name="flag" d="M511.214 937.978c-272.123 0-492.338-220.215-492.338-492.338s220.215-492.338 492.338-492.338c272.123 0 492.338 220.215 492.338 492.338s-221.788 492.338-492.338 492.338zM802.212 239.582c0 0-78.648-56.627-179.318-56.627-102.243 0-128.983 69.21-185.61 73.929-92.805 7.865-215.496-73.929-215.496-73.929v163.588c0 0 53.481 66.065 228.080 66.065 102.243 0 81.794-50.335 165.161-66.065 73.929-12.584 187.183 18.876 187.183 18.876v-125.837zM802.212 538.445c0 0-78.648-56.627-179.318-56.627-102.243 0-128.983 69.21-185.61 73.929-92.805 7.865-215.496-73.929-215.496-73.929v163.588c0 0 53.481 66.065 228.080 66.065 102.243 0 81.794-50.335 165.161-66.065 73.929-12.584 187.183 18.876 187.183 18.876v-125.837z" />
<glyph unicode="&#xe612;" glyph-name="language" d="M594.581 535.3c1.573 4.719 1.573 9.438 3.146 14.157l-50.335 12.584c0-6.292-1.573-12.584-3.146-18.876-18.876 1.573-44.043-1.573-61.346-4.719 0 14.157 0 26.74 1.573 42.47 48.762 1.573 108.535 6.292 152.578 14.157l-4.719 48.762c-45.616-9.438-100.67-15.73-146.286-17.303 1.573 12.584 1.573 28.313 3.146 40.897 6.292 1.573 9.438 4.719 11.011 7.865l-64.492 4.719c-1.573-17.303-1.573-37.751-1.573-55.054-29.886 0-64.492 0-83.367 0l3.146-47.189c15.73 0 48.762 0 80.221 1.573 0-18.876 0-36.178 1.573-55.054-58.2-23.594-100.67-67.637-100.67-124.264 0-37.751 23.594-61.346 59.773-61.346 23.594 0 45.616 7.865 66.065 18.876 1.573-4.719 3.146-9.438 6.292-14.157l42.47 26.74c-1.573 4.719-4.719 7.865-6.292 14.157 31.459 26.74 59.773 66.065 77.075 106.962 44.043-14.157 48.762-45.616 48.762-59.773 0-47.189-48.762-72.356-121.118-80.221 7.865-11.011 17.303-29.886 22.022-40.897 105.389 12.584 154.151 56.627 154.151 122.691-4.719 44.043-31.459 86.513-89.659 102.243zM404.252 385.868c-4.719 0-23.594-1.573-23.594 22.022 0 26.74 22.022 51.908 55.054 67.637 1.573-28.313 4.719-53.481 9.438-75.502-14.157-7.865-28.313-14.157-40.897-14.157zM487.619 437.776c-3.146 15.73-4.719 34.605-4.719 55.054 18.876 4.719 39.324 6.292 45.616 6.292-11.011-23.594-25.167-45.616-40.897-61.346zM512.786 945.843c-272.123 0-492.338-220.215-492.338-492.338s220.215-492.338 492.338-492.338c272.123 0 492.338 220.215 492.338 492.338s-221.788 492.338-492.338 492.338zM832.098 436.203c0-106.962-80.221-196.621-184.037-210.777 3.146-4.719 4.719-9.438 7.865-14.157 58.2-86.513 77.075-45.616 72.356-55.054s-50.335-55.054-158.869 28.313c-15.73 12.584-29.886 25.167-42.47 37.751h-133.702c-117.972 0-213.923 95.951-213.923 213.923v111.68c0 117.972 95.951 213.923 213.923 213.923h224.934c117.972 0 213.923-95.951 213.923-213.923v-111.68z" />
<glyph unicode="&#xe613;" glyph-name="off" d="M508.068 944.27c-272.123 0-492.338-220.215-492.338-492.338s220.215-492.338 492.338-492.338 492.338 220.215 492.338 492.338c-1.573 272.123-221.788 492.338-492.338 492.338zM479.754 786.974c1.573 0 1.573 1.573 3.146 1.573 15.73 0 31.459 0 45.616 0 7.865-3.146 15.73-4.719 22.022-12.584 4.719-6.292 7.865-12.584 7.865-20.449 0-83.367 0-165.161 0-248.528 0-17.303-12.584-31.459-31.459-33.032-14.157-1.573-29.886 0-44.043 0-15.73 1.573-28.313 15.73-28.313 31.459 0 83.367 0 165.161 0 248.528-1.573 15.73 9.438 29.886 25.167 33.032zM794.347 374.857c-7.865-72.356-39.324-133.702-92.805-182.464-39.324-37.751-88.086-61.346-141.567-70.783-83.367-14.157-158.869 3.146-224.934 53.481-58.2 44.043-94.378 102.243-110.108 174.599-3.146 12.584-3.146 25.167-4.719 37.751 0 1.573 0 3.146-1.573 4.719 0 9.438 0 18.876 0 26.74 0 6.292 1.573 11.011 1.573 17.303 11.011 111.68 88.086 209.204 198.194 243.81 0 0 1.573 0 1.573 0 0-1.573 0-3.146 0-4.719 0-31.459 0-61.346 0-92.805 0-3.146-1.573-4.719-4.719-6.292-55.054-29.886-89.659-77.075-100.67-138.421-11.011-69.21 11.011-128.983 62.919-176.172 28.313-25.167 59.773-40.897 97.524-45.616 102.243-15.73 196.621 50.335 217.069 147.859 15.73 73.929-6.292 136.848-61.346 188.756-14.157 12.584-29.886 22.022-45.616 29.886 0 33.032 0 67.637 0 102.243 11.011-4.719 22.022-7.865 33.032-12.584 84.94-39.324 141.567-102.243 165.161-193.475 12.584-36.178 14.157-69.21 11.011-103.816z" />
<glyph unicode="&#xe614;" glyph-name="setting" d="M512.786 568.332c-66.065 0-117.972-51.908-119.545-117.972 0-66.065 53.481-119.545 117.972-119.545 66.065 0 117.972 53.481 117.972 117.972 1.573 67.637-50.335 119.545-116.399 119.545zM512.786 945.843c-272.123 0-492.338-220.215-492.338-492.338s220.215-492.338 492.338-492.338c272.123 0 492.338 220.215 492.338 492.338s-221.788 492.338-492.338 492.338zM824.233 381.149c-4.719-17.303-11.011-33.032-17.303-50.335-3.146-6.292-6.292-9.438-14.157-7.865-20.449 3.146-40.897 1.573-58.2-12.584-25.167-20.449-29.886-51.908-11.011-78.648 4.719-6.292 4.719-12.584 0-18.876-4.719-7.865-11.011-12.584-18.876-17.303-3.146-1.573-6.292-3.146-9.438-6.292-11.011-7.865-18.876-9.438-31.459 0-26.74 22.022-64.492 20.449-91.232 0-15.73-12.584-20.449-29.886-22.022-48.762 0-6.292-3.146-7.865-7.865-7.865-20.449 0-39.324 0-59.773 0-9.438 0-11.011 1.573-12.584 11.011-1.573 25.167-12.584 44.043-36.178 55.054s-45.616 11.011-67.637-3.146c-4.719-3.146-7.865-6.292-11.011-9.438-4.719-6.292-9.438-6.292-17.303-3.146-15.73 6.292-29.886 15.73-40.897 28.313-4.719 4.719-4.719 9.438-1.573 15.73 9.438 15.73 12.584 31.459 9.438 48.762-6.292 34.605-36.178 53.481-73.929 48.762-14.157-1.573-14.157-1.573-18.876 11.011-6.292 15.73-11.011 31.459-15.73 47.189-1.573 6.292 0 9.438 6.292 11.011 25.167 7.865 40.897 29.886 40.897 56.627 0 28.313-15.73 50.335-40.897 58.2-7.865 1.573-7.865 4.719-6.292 11.011 4.719 17.303 11.011 33.032 17.303 50.335 3.146 6.292 4.719 9.438 12.584 7.865 15.73-1.573 31.459-3.146 47.189 4.719 33.032 15.73 44.043 53.481 25.167 84.94-6.292 11.011-6.292 15.73 1.573 26.74 11.011 12.584 26.74 18.876 40.897 26.74 4.719 3.146 6.292-1.573 9.438-4.719 22.022-20.449 48.762-25.167 77.075-17.303 26.74 7.865 40.897 29.886 42.47 59.773 0 6.292 1.573 9.438 7.865 9.438 20.449 0 42.47 0 62.919 0 6.292 0 7.865-1.573 7.865-7.865 0-29.886 15.73-50.335 42.47-59.773 28.313-9.438 55.054-3.146 73.929 18.876 3.146 3.146 6.292 4.719 11.011 3.146 17.303-6.292 33.032-15.73 44.043-29.886 4.719-6.292 4.719-9.438 1.573-15.73-9.438-14.157-12.584-29.886-9.438-47.189 6.292-33.032 28.313-50.335 64.492-48.762 3.146 0 7.865-1.573 11.011 0 11.011 3.146 14.157-1.573 17.303-11.011 4.719-14.157 9.438-29.886 14.157-44.043 3.146-7.865 1.573-12.584-7.865-15.73-37.751-14.157-51.908-56.627-29.886-88.086 7.865-11.011 17.303-20.449 31.459-23.594 11.011-6.292 12.584-9.438 11.011-17.303z" />
<glyph unicode="&#xe615;" glyph-name="del" d="M1012.989 480.246c-15.73 250.101-218.642 453.014-468.743 468.743-303.582 18.876-553.684-231.226-534.808-534.808 15.73-250.101 218.642-453.014 468.743-468.743 305.155-18.876 555.257 231.226 534.808 534.808zM794.347 371.711h-564.694v-4.719 139.994h564.694v-135.275z" />
<glyph unicode="&#xe616;" glyph-name="folder" d="M773.899 499.121c-130.556 0-262.685 0-393.241 0-23.594 0-44.043-14.157-51.908-37.751-25.167-66.065-48.762-130.556-73.929-196.621-6.292-15.73-4.719-18.876 12.584-18.876 64.492 0 128.983 0 195.048 0 64.492 0 128.983 0 193.475 0 25.167 0 45.616 12.584 53.481 34.605 25.167 67.637 50.335 133.702 75.502 201.339 4.719 14.157 3.146 17.303-11.011 17.303zM512.786 939.551c-272.123 0-492.338-220.215-492.338-492.338s220.215-492.338 492.338-492.338 492.338 220.215 492.338 492.338-221.788 492.338-492.338 492.338zM838.39 480.246c-1.573-1.573-1.573-3.146-3.146-4.719-25.167-67.637-51.908-135.275-75.502-204.485-14.157-40.897-55.054-75.502-108.535-73.929-78.648 1.573-155.724 0-234.372 0-51.908 0-102.243 0-154.151 0-37.751 0-64.492 20.449-75.502 56.627 0 1.573-1.573 3.146-3.146 4.719 0 124.264 0 250.101 0 374.366 1.573 1.573 1.573 3.146 3.146 6.292 9.438 36.178 34.605 56.627 72.356 58.2 44.043 1.573 88.086 1.573 130.556 0 34.605-1.573 64.492-28.313 69.21-64.492 0-3.146 1.573-6.292 1.573-9.438 4.719 0 9.438 0 14.157 0 59.773 0 119.545 0 179.318 0 37.751 0 66.065-18.876 75.502-50.335 3.146-7.865 3.146-20.449 7.865-23.594 6.292-4.719 17.303-1.573 26.74-1.573 1.573 0 1.573 0 3.146 0 33.032 1.573 56.627-11.011 67.637-44.043 3.146-7.865 3.146-15.73 3.146-23.594z" />
<glyph unicode="&#xe617;" glyph-name="check" d="M547.392-54.562c-23.594 0-47.189 0-72.356 0-12.584 1.573-25.167 3.146-37.751 4.719-97.524 14.157-182.464 53.481-256.393 117.972-86.513 77.075-141.567 173.026-162.015 287.853-3.146 18.876-6.292 37.751-9.438 55.054 0 23.594 0 47.189 0 72.356 0 1.573 1.573 4.719 1.573 6.292 6.292 84.94 34.605 163.588 81.794 235.945 110.108 168.307 322.458 256.393 520.651 213.923 121.118-25.167 220.215-86.513 295.717-184.037 86.513-111.68 119.545-240.664 100.67-380.657-14.157-97.524-53.481-182.464-117.972-256.393-77.075-88.086-173.026-143.14-287.853-163.588-18.876-4.719-37.751-6.292-56.627-9.438zM435.711 363.846c-34.605 33.032-67.637 66.065-102.243 97.524-9.438 9.438-12.584 9.438-22.022 0-15.73-17.303-33.032-34.605-48.762-50.335-14.157-14.157-14.157-17.303 0-31.459 56.627-53.481 113.253-108.535 168.307-162.015 12.584-12.584 17.303-12.584 28.313 1.573 102.243 130.556 204.485 262.685 306.728 393.241 7.865 9.438 7.865 15.73-3.146 22.022-20.449 15.73-39.324 31.459-59.773 47.189-11.011 9.438-15.73 7.865-25.167-3.146-61.346-78.648-121.118-155.724-182.464-234.372-17.303-26.74-39.324-53.481-59.773-80.221z" />
<glyph unicode="&#xe618;" glyph-name="clean" d="M1012.989 480.246c-15.73 250.101-218.642 453.014-468.743 468.743-303.582 18.876-553.684-231.226-534.808-534.808 15.73-250.101 218.642-453.014 468.743-468.743 305.155-18.876 555.257 231.226 534.808 534.808zM687.386 214.415c0-33.032 0-64.492 0-97.524 0-15.73-4.719-25.167-20.449-23.594-132.129 4.719-254.82 39.324-360.209 130.556 0 0-1.573 1.573-1.573 1.573-51.908 51.908-51.908 55.054-3.146 108.535 29.886 31.459 58.2 62.919 88.086 94.378 9.438 11.011 17.303 14.157 31.459 7.865 81.794-34.605 163.588-67.637 246.955-99.097 14.157-6.292 20.449-14.157 18.876-29.886 0-31.459 0-62.919 0-92.805zM685.813 360.7c-86.513 36.178-171.453 70.783-254.82 106.962 14.157 47.189 61.346 83.367 113.253 83.367 23.594 0 33.032 7.865 44.043 29.886 33.032 73.929 69.21 146.286 105.389 221.788 23.594-12.584 44.043-23.594 66.065-36.178-39.324-81.794-77.075-162.015-114.826-242.237 44.043-44.043 66.065-95.951 40.897-163.588z" />
<glyph unicode="&#xe619;" glyph-name="import" d="M1014.562 481.819c-15.73 248.528-218.642 451.441-468.743 468.743-303.582 18.876-553.684-231.226-534.808-534.808 15.73-250.101 218.642-453.014 468.743-468.743 303.582-20.449 553.684 231.226 534.808 534.808zM375.939 489.684c12.584 4.719 22.022 1.573 33.032-7.865 23.594-22.022 47.189-44.043 70.783-66.065v239.091c0 18.876 15.73 33.032 33.032 33.032 18.876 0 33.032-15.73 33.032-33.032v-239.091c23.594 22.022 48.762 44.043 72.356 66.065 14.157 12.584 33.032 12.584 44.043-1.573 11.011-12.584 9.438-29.886-4.719-44.043-40.897-37.751-80.221-75.502-121.118-111.68-11.011-9.438-20.449-12.584-29.886-9.438-6.292 1.573-12.584 4.719-17.303 9.438 0 0 0 0 0 0-40.897 37.751-80.221 75.502-121.118 111.68-18.876 17.303-14.157 45.616 7.865 53.481zM822.661 238.009c0-15.73-12.584-28.313-28.313-28.313h-564.694c-15.73 0-28.313 12.584-28.313 28.313v240.664c0 15.73 12.584 28.313 28.313 28.313s28.313-12.584 28.313-28.313v-212.35h508.068v212.35c0 15.73 12.584 28.313 28.313 28.313s28.313-12.584 28.313-28.313v-240.664z" />
<glyph unicode="&#xe61a;" glyph-name="export" d="M1014.562 481.819c-15.73 248.528-218.642 451.441-468.743 468.743-303.582 18.876-553.684-231.226-534.808-534.808 15.73-250.101 218.642-453.014 468.743-468.743 303.582-20.449 553.684 231.226 534.808 534.808zM366.501 563.613c40.897 36.178 80.221 73.929 121.118 111.68 0 0 0 0 0 0 4.719 4.719 11.011 9.438 17.303 9.438 11.011 3.146 20.449 0 29.886-9.438 39.324-37.751 80.221-75.502 121.118-111.68 14.157-12.584 15.73-31.459 4.719-44.043-12.584-12.584-29.886-14.157-44.043-1.573-23.594 22.022-47.189 44.043-72.356 66.065v-239.091c0-17.303-14.157-33.032-33.032-33.032-17.303 0-33.032 14.157-33.032 33.032v239.091c-23.594-22.022-47.189-44.043-70.783-66.065-9.438-9.438-20.449-12.584-33.032-7.865-20.449 9.438-25.167 36.178-7.865 53.481zM822.661 238.009c0-15.73-12.584-28.313-28.313-28.313h-564.694c-15.73 0-28.313 12.584-28.313 28.313v240.664c0 15.73 12.584 28.313 28.313 28.313s28.313-12.584 28.313-28.313v-212.35h508.068v212.35c0 15.73 12.584 28.313 28.313 28.313s28.313-12.584 28.313-28.313v-240.664z" />
<glyph unicode="&#xe61b;" glyph-name="show" d="M1014.562 481.819c-15.73 248.528-218.642 451.441-468.743 468.743-303.582 18.876-553.684-231.226-534.808-534.808 15.73-250.101 218.642-453.014 468.743-468.743 303.582-20.449 553.684 231.226 534.808 534.808zM497.057 277.333c-196.621 0-355.49 72.356-355.49 162.015s158.869 162.015 355.49 162.015 355.49-72.356 355.49-162.015-158.869-162.015-355.49-162.015zM622.894 439.349c0-85.135-56.339-154.151-125.837-154.151s-125.837 69.016-125.837 154.151c0 85.135 56.339 154.151 125.837 154.151s125.837-69.016 125.837-154.151z" />
<glyph unicode="&#xe61c;" glyph-name="calendar" d="M460.879 300.928h102.243v-102.243h-102.243v102.243zM297.29 458.224h102.243v-102.243h-102.243v102.243zM626.040 300.928h102.243v-102.243h-102.243v102.243zM627.613 458.224h102.243v-102.243h-102.243v102.243zM462.452 458.224h102.243v-102.243h-102.243v102.243zM1014.562 481.819c-15.73 248.528-218.642 451.441-468.743 468.743-303.582 18.876-553.684-231.226-534.808-534.808 15.73-250.101 218.642-453.014 468.743-468.743 303.582-20.449 553.684 231.226 534.808 534.808zM652.78 735.066c0 11.011 9.438 20.449 20.449 20.449h6.292c11.011 0 20.449-9.438 20.449-20.449v-111.68c0-11.011-9.438-20.449-20.449-20.449h-6.292c-11.011 0-20.449 9.438-20.449 20.449v111.68zM331.896 735.066c0 11.011 9.438 20.449 20.449 20.449h6.292c11.011 0 20.449-9.438 20.449-20.449v-111.68c0-11.011-9.438-20.449-20.449-20.449h-6.292c-11.011 0-20.449 9.438-20.449 20.449v111.68zM805.358 142.058h-585.143v374.366h583.57v-374.366zM805.358 547.883h-585.143v136.848h89.659v-69.21c0-17.303 18.876-31.459 40.897-31.459s40.897 14.157 40.897 31.459v69.21h239.091v-69.21c0-17.303 18.876-31.459 40.897-31.459s40.897 14.157 40.897 31.459v69.21h89.659v-136.848zM295.717 300.928h102.243v-102.243h-102.243v102.243z" />
<glyph unicode="&#xe61d;" glyph-name="list" horiz-adv-x="1043" d="M682.667 286.771h-328.75c-11.011 0-20.449-9.438-20.449-20.449v-4.719c0-11.011 9.438-20.449 20.449-20.449h328.75c11.011 0 20.449 9.438 20.449 20.449v4.719c0 11.011-9.438 20.449-20.449 20.449zM349.198 596.645h254.82c12.584 0 22.022 11.011 22.022 23.594s-9.438 23.594-22.022 23.594h-254.82c-12.584 0-22.022-11.011-22.022-23.594s9.438-23.594 22.022-23.594zM682.667 401.598h-328.75c-11.011 0-20.449-9.438-20.449-20.449v-4.719c0-11.011 9.438-20.449 20.449-20.449h328.75c11.011 0 20.449 9.438 20.449 20.449v4.719c0 11.011-9.438 20.449-20.449 20.449zM1019.281 481.819c-15.73 248.528-218.642 451.441-468.743 468.743-303.582 18.876-553.684-231.226-534.808-534.808 15.73-250.101 218.642-453.014 468.743-468.743 303.582-20.449 553.684 231.226 534.808 534.808zM759.742 187.674c0-17.303-14.157-31.459-31.459-31.459h-418.409c-17.303 0-31.459 14.157-31.459 31.459v537.954c0 17.303 14.157 31.459 31.459 31.459h339.76l110.108-110.108v-459.306zM331.896 497.548c0-12.584 9.438-23.594 22.022-23.594h327.177c12.584 0 22.022 11.011 22.022 23.594s-9.438 23.594-22.022 23.594h-327.177c-12.584 0-22.022-9.438-22.022-23.594z" />
<glyph unicode="&#xe61e;" glyph-name="car" horiz-adv-x="1043" d="M301.561 463.12c31.645-5.638 53.839-29.621 49.572-53.569s-33.378-38.79-65.023-33.152c-31.645 5.638-53.839 29.621-49.572 53.569s33.378 38.79 65.023 33.152zM714.126 624.959h-388.522l-50.335-127.41h490.765l-51.908 127.41zM640.197 517.997c-3.146-3.146-9.438-3.146-14.157 0l-70.783 70.783c-3.146 3.146-3.146 9.438 0 14.157 3.146 3.146 9.438 3.146 14.157 0l70.783-70.783c3.146-4.719 3.146-11.011 0-14.157zM704.688 519.57c-3.146-3.146-9.438-3.146-14.157 0l-70.783 70.783c-3.146 3.146-3.146 9.438 0 14.157 3.146 3.146 9.438 3.146 14.157 0l70.783-70.783c3.146-3.146 3.146-9.438 0-14.157zM1024 484.965c-15.73 248.528-218.642 451.441-468.743 468.743-303.582 18.876-553.684-231.226-534.808-534.808 15.73-250.101 218.642-453.014 468.743-468.743 303.582-20.449 553.684 231.226 534.808 534.808zM879.287 472.381h-22.022c6.292-9.438 9.438-18.876 9.438-29.886v-89.659c0-18.876-9.438-34.605-22.022-44.043v-58.2c0-22.022-18.876-40.897-40.897-40.897h-29.886c-22.022 0-40.897 18.876-40.897 40.897v47.189h-415.263v-47.189c0-22.022-18.876-40.897-40.897-40.897h-29.886c-22.022 0-40.897 18.876-40.897 40.897v55.054c-15.73 9.438-26.74 26.74-26.74 47.189v89.659c0 11.011 3.146 22.022 9.438 31.459h-31.459c-15.73 0-28.313 12.584-28.313 28.313s12.584 28.313 28.313 28.313h37.751c12.584 0 23.594-7.865 26.74-18.876l56.627 143.14c3.146 11.011 12.584 17.303 22.022 17.303h3.146c0 0 0 0 0 0h434.138c0 0 0 0 0 0h1.573c7.865 0 15.73-4.719 18.876-11.011 1.573-1.573 3.146-3.146 3.146-6.292l55.054-139.994c4.719 9.438 14.157 14.157 25.167 14.157h37.751c15.73 0 28.313-12.584 28.313-28.313s-12.584-28.313-28.313-28.313zM633.905 433.057h-224.934c-14.157 0-25.167-11.011-25.167-25.167v-51.908c0-14.157 11.011-25.167 25.167-25.167h224.934c14.157 0 25.167 11.011 25.167 25.167v51.908c0 14.157-11.011 25.167-25.167 25.167zM746.449 462.687c31.645 5.638 60.756-9.205 65.023-33.152s-17.928-47.931-49.572-53.569c-31.645-5.638-60.756 9.205-65.023 33.152s17.928 47.931 49.572 53.569z" />
<glyph unicode="&#xe61f;" glyph-name="point" horiz-adv-x="1043" d="M1024 481.819c-15.73 248.528-218.642 451.441-468.743 468.743-303.582 18.876-553.684-231.226-534.808-534.808 15.73-250.101 218.642-453.014 468.743-468.743 303.582-20.449 553.684 231.226 534.808 534.808z" />
<glyph unicode="&#xe620;" glyph-name="duplicate" d="M1014.562 481.819c-15.73 248.528-218.642 451.441-468.743 468.743-303.582 18.876-553.684-231.226-534.808-534.808 15.73-250.101 218.642-453.014 468.743-468.743 303.582-20.449 553.684 231.226 534.808 534.808zM331.896 645.407v-377.512h-42.47c-25.167 0-44.043 20.449-44.043 44.043v404.252c0 25.167 20.449 44.043 44.043 44.043h295.717c25.167 0 44.043-20.449 44.043-44.043v-26.74h-253.247c-23.594 0-44.043-18.876-44.043-44.043zM778.618 181.382c0-26.74-22.022-47.189-47.189-47.189h-289.425c-26.74 0-47.189 22.022-47.189 47.189v397.96c0 26.74 22.022 47.189 47.189 47.189h289.425c26.74 0 47.189-22.022 47.189-47.189v-397.96z" />
<glyph unicode="&#xe621;" glyph-name="gestion" d="M621.321 639.115c0-20.449-17.303-37.751-37.751-37.751h-139.994c-20.449 0-37.751 17.303-37.751 37.751v3.146h-72.356v-459.306h357.063v459.306h-67.637v-3.146zM600.873 283.625h-177.745c-17.303 0-31.459 14.157-31.459 31.459s14.157 31.459 31.459 31.459h177.745c17.303 0 31.459-14.157 31.459-31.459s-14.157-31.459-31.459-31.459zM632.332 442.495c0-17.303-14.157-31.459-31.459-31.459h-177.745c-17.303 0-31.459 14.157-31.459 31.459s14.157 31.459 31.459 31.459h177.745c17.303 0 31.459-14.157 31.459-31.459zM564.694 725.628c0-28.668-23.24-51.908-51.908-51.908s-51.908 23.24-51.908 51.908c0 28.668 23.24 51.908 51.908 51.908s51.908-23.24 51.908-51.908zM909.174 757.088c-75.502 97.524-174.599 158.869-295.717 184.037-198.194 42.47-410.544-45.616-520.651-215.496-47.189-72.356-75.502-151.005-81.794-235.945 0-1.573-1.573-4.719-1.573-6.292 0-25.167 0-48.762 0-72.356 3.146-18.876 6.292-37.751 9.438-56.627 20.449-113.253 75.502-209.204 163.588-286.28 73.929-64.492 158.869-103.816 256.393-117.972 12.584-1.573 25.167-3.146 37.751-4.719 25.167 0 48.762 0 72.356 0 18.876 1.573 37.751 4.719 55.054 11.011 114.826 20.449 210.777 75.502 287.853 163.588 64.492 73.929 103.816 158.869 117.972 256.393 18.876 139.994-14.157 268.977-100.67 380.657zM753.45 153.069c0-6.292-1.573-12.584-4.719-17.303-6.292-7.865-15.73-14.157-26.74-14.157v0h-419.982c-17.303 0-31.459 14.157-31.459 31.459v522.224c0 17.303 14.157 31.459 31.459 31.459h103.816v70.783c0 20.449 17.303 37.751 37.751 37.751h139.994c20.449 0 37.751-17.303 37.751-37.751v-70.783h100.67c11.011 0 20.449-6.292 26.74-14.157 3.146-4.719 4.719-11.011 4.719-17.303v-522.224z" />
</font>
</defs>
</svg>
